<svg width="57" height="56" viewBox="0 0 57 56" fill="none" xmlns="http://www.w3.org/2000/svg">
<path d="M25.175 38.7334L41.9188 22.2834L38.5938 19.0167L25.175 32.2001L18.4063 25.5501L15.0813 28.8167L25.175 38.7334ZM28.5 51.3334C25.2146 51.3334 22.1271 50.7209 19.2375 49.4959C16.3479 48.2709 13.8344 46.6084 11.6969 44.5084C9.55938 42.4084 7.86719 39.939 6.62031 37.1001C5.37344 34.2612 4.75 31.2279 4.75 28.0001C4.75 24.7723 5.37344 21.739 6.62031 18.9001C7.86719 16.0612 9.55938 13.5917 11.6969 11.4917C13.8344 9.39175 16.3479 7.72925 19.2375 6.50425C22.1271 5.27925 25.2146 4.66675 28.5 4.66675C31.7854 4.66675 34.8729 5.27925 37.7625 6.50425C40.6521 7.72925 43.1656 9.39175 45.3031 11.4917C47.4406 13.5917 49.1328 16.0612 50.3797 18.9001C51.6266 21.739 52.25 24.7723 52.25 28.0001C52.25 31.2279 51.6266 34.2612 50.3797 37.1001C49.1328 39.939 47.4406 42.4084 45.3031 44.5084C43.1656 46.6084 40.6521 48.2709 37.7625 49.4959C34.8729 50.7209 31.7854 51.3334 28.5 51.3334ZM28.5 46.6667C33.8042 46.6667 38.2969 44.8584 41.9781 41.2417C45.6594 37.6251 47.5 33.2112 47.5 28.0001C47.5 22.789 45.6594 18.3751 41.9781 14.7584C38.2969 11.1417 33.8042 9.33341 28.5 9.33341C23.1958 9.33341 18.7031 11.1417 15.0219 14.7584C11.3406 18.3751 9.5 22.789 9.5 28.0001C9.5 33.2112 11.3406 37.6251 15.0219 41.2417C18.7031 44.8584 23.1958 46.6667 28.5 46.6667Z" fill="#51DC5A"/>
</svg>
