<svg width="26" height="26" viewBox="0 0 26 26" fill="none" xmlns="http://www.w3.org/2000/svg">
<path d="M5.42643 20.5833H6.97018L17.5598 9.99375L16.016 8.45L5.42643 19.0396V20.5833ZM3.25977 22.75V18.1458L17.5598 3.87292C17.7764 3.67431 18.0157 3.52083 18.2775 3.4125C18.5393 3.30417 18.8146 3.25 19.1035 3.25C19.3924 3.25 19.6723 3.30417 19.9431 3.4125C20.2139 3.52083 20.4487 3.68333 20.6473 3.9L22.1368 5.41667C22.3535 5.61528 22.5115 5.85 22.6108 6.12083C22.7101 6.39167 22.7598 6.6625 22.7598 6.93333C22.7598 7.22222 22.7101 7.49757 22.6108 7.75938C22.5115 8.02118 22.3535 8.26042 22.1368 8.47708L7.86393 22.75H3.25977ZM16.7743 9.23542L16.016 8.45L17.5598 9.99375L16.7743 9.23542Z" fill="black"/>
</svg>
