<svg width="45" height="45" viewBox="0 0 45 45" fill="none" xmlns="http://www.w3.org/2000/svg">
<path d="M22.0376 29.9908C24.3292 29.9884 26.276 29.167 27.878 27.5264C29.48 25.8859 30.2795 23.895 30.2765 21.5537C30.2735 19.2125 29.4689 17.2233 27.8627 15.5861C26.2565 13.9489 24.3076 13.1315 22.016 13.1339C19.7244 13.1363 17.7776 13.9578 16.1756 15.5984C14.5736 17.2389 13.774 19.2298 13.777 21.5711C13.78 23.9123 14.5846 25.9015 16.1908 27.5387C17.7971 29.1759 19.746 29.9933 22.0376 29.9908ZM22.0332 26.6195C20.6583 26.6209 19.4889 26.1305 18.5252 25.1482C17.5615 24.1659 17.0787 22.9723 17.0769 21.5676C17.0751 20.1628 17.5548 18.9683 18.5161 17.984C19.4773 16.9996 20.6454 16.5068 22.0203 16.5053C23.3953 16.5039 24.5646 16.9943 25.5283 17.9766C26.4921 18.9589 26.9748 20.1524 26.9766 21.5572C26.9784 22.9619 26.4987 24.1565 25.5375 25.1408C24.5763 26.1251 23.4082 26.618 22.0332 26.6195ZM22.0447 35.6098C17.5838 35.6145 13.5184 34.3467 9.84856 31.8064C6.17875 29.2661 3.51614 25.8585 1.86073 21.5836C3.50521 17.3052 6.15911 13.892 9.82241 11.344C13.4857 8.79598 17.5479 7.51963 22.0088 7.51495C26.4698 7.51026 30.5352 8.77807 34.205 11.3184C37.8748 13.8587 40.5374 17.2663 42.1928 21.5412C40.5484 25.8196 37.8945 29.2328 34.2312 31.7808C30.5679 34.3288 26.5057 35.6051 22.0447 35.6098ZM22.0399 31.8638C25.4926 31.8602 28.6615 30.9282 31.5465 29.0678C34.4316 27.2074 36.6359 24.6999 38.1596 21.5454C36.6279 18.3942 34.4171 15.8914 31.5273 14.037C28.6375 12.1827 25.4663 11.2573 22.0136 11.2609C18.5609 11.2646 15.3921 12.1966 12.507 14.057C9.62201 15.9174 7.41764 18.4249 5.89394 21.5793C7.4257 24.7306 9.63647 27.2334 12.5263 29.0878C15.416 30.9421 18.5873 31.8675 22.0399 31.8638Z" fill="black"/>
</svg>
