<svg width="336" height="331" viewBox="0 0 336 331" fill="none" xmlns="http://www.w3.org/2000/svg">
<g clip-path="url(#clip0_801_2971)">
<path d="M213.306 74.441H122.769C120.706 74.4435 118.728 75.2718 117.269 76.7441C115.81 78.2165 114.989 80.2127 114.987 82.2949V285.369L113.949 285.689L91.7388 292.553C90.6862 292.877 89.5493 292.766 88.5776 292.245C87.6059 291.724 86.8789 290.834 86.5561 289.773L20.4907 71.9854C20.1692 70.923 20.2787 69.7754 20.7953 68.7946C21.3119 67.8137 22.1932 67.08 23.2456 66.7547L57.4716 56.1782L156.694 25.5272L190.92 14.9507C191.441 14.7889 191.988 14.7324 192.53 14.7843C193.073 14.8363 193.6 14.9957 194.081 15.2534C194.563 15.5112 194.989 15.8622 195.336 16.2865C195.683 16.7107 195.943 17.1998 196.103 17.7257L212.99 73.3938L213.306 74.441Z" fill="#F2F2F2"/>
<path d="M233.063 73.3938L212.71 6.30093C212.371 5.18304 211.818 4.14344 211.081 3.24154C210.344 2.33964 209.438 1.59313 208.415 1.04464C207.393 0.496162 206.273 0.156459 205.12 0.0449613C203.967 -0.0665366 202.803 0.0523553 201.696 0.394831L153.576 15.2596L54.359 45.9158L6.23935 60.7857C4.00397 61.4785 2.13225 63.038 1.03504 65.122C-0.0621687 67.2061 -0.295232 69.6443 0.38702 71.9016L69.9491 301.197C70.5033 303.02 71.6216 304.614 73.1399 305.748C74.6581 306.882 76.4965 307.494 78.3851 307.496C79.2592 307.497 80.1283 307.364 80.9634 307.104L113.949 296.914L114.987 296.59V295.496L113.949 295.815L80.6574 306.103C78.6843 306.71 76.5531 306.503 74.7314 305.526C72.9097 304.55 71.5463 302.884 70.9401 300.894L1.38335 71.5926C1.083 70.6067 0.978326 69.5706 1.0753 68.5437C1.17228 67.5169 1.46901 66.5194 1.9485 65.6085C2.42799 64.6975 3.08084 63.891 3.86964 63.235C4.65844 62.5791 5.56769 62.0866 6.54535 61.7858L54.665 46.9158L153.882 16.2649L202.002 1.3949C202.743 1.16651 203.514 1.05006 204.29 1.04933C205.954 1.0531 207.573 1.59447 208.909 2.59414C210.246 3.59381 211.231 4.99926 211.719 6.60462L231.979 73.3938L232.3 74.441H233.379L233.063 73.3938Z" fill="#3F3D56"/>
<path d="M63.6477 66.9256C62.6478 66.9249 61.6744 66.6008 60.8703 66.0008C60.0663 65.4009 59.4739 64.5567 59.1801 63.5921L52.4976 41.5637C52.3181 40.972 52.2558 40.3504 52.3143 39.7343C52.3728 39.1183 52.551 38.52 52.8386 37.9734C53.1263 37.4269 53.5179 36.943 53.9909 36.5492C54.4639 36.1554 55.0092 35.8595 55.5956 35.6784L146.874 7.47589C148.059 7.11122 149.338 7.23559 150.431 7.8217C151.524 8.4078 152.343 9.40776 152.706 10.6021L159.389 32.6307C159.75 33.8257 159.626 35.1165 159.046 36.2199C158.465 37.3233 157.474 38.1491 156.291 38.5162L65.0119 66.7188C64.5699 66.8557 64.1101 66.9254 63.6477 66.9256Z" fill="#6C63FF"/>
<path d="M98.6535 23.5378C104.384 23.5378 109.03 18.8495 109.03 13.066C109.03 7.28262 104.384 2.59424 98.6535 2.59424C92.9229 2.59424 88.2773 7.28262 88.2773 13.066C88.2773 18.8495 92.9229 23.5378 98.6535 23.5378Z" fill="#6C63FF"/>
<path d="M98.6535 19.6972C102.282 19.6972 105.224 16.7284 105.224 13.0661C105.224 9.40389 102.282 6.43506 98.6535 6.43506C95.0247 6.43506 92.083 9.40389 92.083 13.0661C92.083 16.7284 95.0247 19.6972 98.6535 19.6972Z" fill="white"/>
<path d="M312.653 304.82H137.296C136.126 304.819 135.006 304.35 134.179 303.515C133.352 302.681 132.887 301.55 132.886 300.37V88.3158C132.887 87.1358 133.352 86.0046 134.179 85.1702C135.006 84.3359 136.126 83.8666 137.296 83.8652H312.653C313.822 83.8666 314.943 84.3359 315.77 85.1703C316.597 86.0046 317.062 87.1358 317.063 88.3158V300.37C317.062 301.55 316.597 302.681 315.77 303.515C314.943 304.35 313.822 304.819 312.653 304.82Z" fill="#E6E6E6"/>
<path d="M231.978 73.3936H122.769C120.431 73.3969 118.189 74.3358 116.536 76.0043C114.883 77.6728 113.953 79.9349 113.949 82.2946V295.815L114.987 295.495V82.2946C114.989 80.2124 115.81 78.2162 117.269 76.7439C118.728 75.2715 120.706 74.4433 122.769 74.4407H232.3L231.978 73.3936ZM327.18 73.3936H122.769C120.431 73.3969 118.189 74.3358 116.536 76.0043C114.883 77.6728 113.953 79.9349 113.949 82.2946V322.099C113.953 324.459 114.883 326.721 116.536 328.389C118.189 330.058 120.431 330.997 122.769 331H327.18C329.518 330.997 331.76 330.058 333.413 328.389C335.066 326.721 335.997 324.459 336 322.099V82.2946C335.997 79.9349 335.066 77.6728 333.413 76.0043C331.76 74.3358 329.518 73.3969 327.18 73.3936ZM334.962 322.099C334.96 324.181 334.139 326.177 332.68 327.65C331.221 329.122 329.243 329.95 327.18 329.953H122.769C120.706 329.95 118.728 329.122 117.269 327.65C115.81 326.177 114.989 324.181 114.987 322.099V82.2946C114.989 80.2124 115.81 78.2162 117.269 76.7439C118.728 75.2715 120.706 74.4433 122.769 74.4407H327.18C329.243 74.4433 331.221 75.2715 332.68 76.7439C334.139 78.2162 334.96 80.2124 334.962 82.2946V322.099Z" fill="#3F3D56"/>
<path d="M272.705 96.4318H177.244C176.007 96.4304 174.82 95.9335 173.944 95.0501C173.069 94.1666 172.577 92.9689 172.575 91.7195V68.6815C172.577 67.4322 173.069 66.2344 173.944 65.351C174.82 64.4676 176.007 63.9706 177.244 63.9692H272.705C273.943 63.9706 275.13 64.4676 276.006 65.351C276.881 66.2344 277.373 67.4322 277.375 68.6815V91.7195C277.373 92.9689 276.881 94.1666 276.006 95.0501C275.13 95.9335 273.943 96.4304 272.705 96.4318Z" fill="#6C63FF"/>
<path d="M224.975 65.5398C230.705 65.5398 235.351 60.8514 235.351 55.068C235.351 49.2846 230.705 44.5962 224.975 44.5962C219.244 44.5962 214.599 49.2846 214.599 55.068C214.599 60.8514 219.244 65.5398 224.975 65.5398Z" fill="#6C63FF"/>
<path d="M224.974 61.4461C228.465 61.4461 231.294 58.5904 231.294 55.0678C231.294 51.5451 228.465 48.6895 224.974 48.6895C221.484 48.6895 218.654 51.5451 218.654 55.0678C218.654 58.5904 221.484 61.4461 224.974 61.4461Z" fill="white"/>
</g>
<defs>
<clipPath id="clip0_801_2971">
<rect width="336" height="331" fill="white"/>
</clipPath>
</defs>
</svg>
