<svg width="83" height="53" viewBox="0 0 83 53" fill="none" xmlns="http://www.w3.org/2000/svg">
<path d="M3.5 26.9946V37.9248C3.5 37.9248 7.37096 37.6568 12.3583 37.7349V26.1982C9.84585 26.6459 6.95497 26.9139 3.5 26.9946Z" fill="#FF5300" stroke="#161616" stroke-width="5.63668" stroke-linecap="round" stroke-linejoin="round"/>
<path d="M26.364 19.6296C22.2932 22.9321 18.4575 25.1077 12.3584 26.1981V37.7347C17.7876 37.818 24.5401 38.3125 29.0621 40.004C37.7395 43.2493 44.774 50 44.774 50V3C44.774 3 32.1105 14.966 26.364 19.6296Z" fill="#A098FF" stroke="#161616" stroke-width="5.63668" stroke-linecap="round" stroke-linejoin="round"/>
<path d="M44.7738 50C46.9194 50 48.6588 39.4787 48.6588 26.5C48.6588 13.5213 46.9194 3 44.7738 3C42.6281 3 40.8887 13.5213 40.8887 26.5C40.8887 39.4787 42.6281 50 44.7738 50Z" fill="white" stroke="#161616" stroke-width="5.63668" stroke-linecap="round" stroke-linejoin="round"/>
<path d="M53.3555 16.9207L73.1804 5.1499" stroke="#161616" stroke-width="5.63668" stroke-linecap="round" stroke-linejoin="round"/>
<path d="M53.3555 23.2826L79.5004 18.5098" stroke="#161616" stroke-width="5.63668" stroke-linecap="round" stroke-linejoin="round"/>
<path d="M53.3555 29.8047L75.1899 31.3948" stroke="#161616" stroke-width="5.63668" stroke-linecap="round" stroke-linejoin="round"/>
<path d="M53.3555 35.7905L77.6742 43.7748" stroke="#161616" stroke-width="5.63668" stroke-linecap="round" stroke-linejoin="round"/>
</svg>
