<svg width="31" height="31" viewBox="0 0 31 31" fill="none" xmlns="http://www.w3.org/2000/svg">
<g clip-path="url(#clip0_801_3131)">
<path d="M11.798 3.12422L10.4833 4.84375H20.5167L19.202 3.12422C19.0982 2.99102 18.9252 2.90625 18.7384 2.90625H12.2547C12.0679 2.90625 11.8949 2.98496 11.7911 3.12422H11.798ZM21.9699 1.51367L24.5094 4.84375H25.4643H28.7857H29.3393C30.2596 4.84375 31 5.4916 31 6.29688C31 7.10215 30.2596 7.75 29.3393 7.75H28.7857V26.1562C28.7857 28.8324 26.3085 31 23.25 31H7.75C4.69152 31 2.21429 28.8324 2.21429 26.1562V7.75H1.66071C0.740402 7.75 0 7.10215 0 6.29688C0 5.4916 0.740402 4.84375 1.66071 4.84375H2.21429H5.53571H6.49062L9.03013 1.50762C9.74978 0.569141 10.9607 0 12.2547 0H18.7384C20.0324 0 21.2433 0.569141 21.9629 1.50762L21.9699 1.51367ZM5.53571 7.75V26.1562C5.53571 27.2279 6.52522 28.0938 7.75 28.0938H23.25C24.4748 28.0938 25.4643 27.2279 25.4643 26.1562V7.75H5.53571ZM11.0714 11.625V24.2188C11.0714 24.7516 10.5732 25.1875 9.96428 25.1875C9.35536 25.1875 8.85714 24.7516 8.85714 24.2188V11.625C8.85714 11.0922 9.35536 10.6562 9.96428 10.6562C10.5732 10.6562 11.0714 11.0922 11.0714 11.625ZM16.6071 11.625V24.2188C16.6071 24.7516 16.1089 25.1875 15.5 25.1875C14.8911 25.1875 14.3929 24.7516 14.3929 24.2188V11.625C14.3929 11.0922 14.8911 10.6562 15.5 10.6562C16.1089 10.6562 16.6071 11.0922 16.6071 11.625ZM22.1429 11.625V24.2188C22.1429 24.7516 21.6446 25.1875 21.0357 25.1875C20.4268 25.1875 19.9286 24.7516 19.9286 24.2188V11.625C19.9286 11.0922 20.4268 10.6562 21.0357 10.6562C21.6446 10.6562 22.1429 11.0922 22.1429 11.625Z" fill="black"/>
</g>
<defs>
<clipPath id="clip0_801_3131">
<rect width="31" height="31" fill="white"/>
</clipPath>
</defs>
</svg>
