<svg width="35" height="34" viewBox="0 0 35 34" fill="none" xmlns="http://www.w3.org/2000/svg">
<path d="M17.9583 22.6857C19.7262 22.6838 21.2281 22.0645 22.4641 20.8276C23.7001 19.5907 24.3169 18.0897 24.3147 16.3246C24.3124 14.5595 23.6918 13.0598 22.4526 11.8255C21.2135 10.5913 19.71 9.97507 17.9421 9.97694C16.1741 9.9788 14.6722 10.5982 13.4362 11.835C12.2002 13.0719 11.5834 14.5729 11.5856 16.338C11.5879 18.1031 12.2086 19.6028 13.4477 20.8371C14.6868 22.0713 16.1903 22.6875 17.9583 22.6857ZM17.955 20.1439C16.8943 20.1451 15.9921 19.7753 15.2487 19.0348C14.5052 18.2942 14.1328 17.3944 14.1314 16.3353C14.1301 15.2763 14.5002 14.3757 15.2418 13.6336C15.9834 12.8914 16.8845 12.5198 17.9453 12.5187C19.0061 12.5176 19.9082 12.8873 20.6516 13.6279C21.3951 14.3684 21.7675 15.2682 21.7689 16.3273C21.7702 17.3863 21.4001 18.2869 20.6585 19.0291C19.9169 19.7712 19.0158 20.1428 17.955 20.1439ZM17.9637 26.9219C14.5221 26.9256 11.3857 25.9698 8.55462 24.0547C5.72349 22.1396 3.66942 19.5706 2.3924 16.3477C3.6612 13.1221 5.70872 10.5488 8.53496 8.62772C11.3612 6.70666 14.4951 5.74431 17.9367 5.74069C21.3782 5.73706 24.5146 6.6928 27.3457 8.6079C30.1768 10.523 32.2309 13.092 33.5079 16.3149C32.2391 19.5405 30.1916 22.1138 27.3654 24.0349C24.5391 25.956 21.4052 26.9183 17.9637 26.9219ZM17.9601 24.0978C20.6237 24.095 23.0685 23.3922 25.2943 21.9896C27.5201 20.5869 29.2208 18.6964 30.3964 16.3182C29.2147 13.9424 27.5092 12.0556 25.2798 10.6576C23.0505 9.25963 20.6039 8.56205 17.9403 8.56485C15.2766 8.56766 12.8318 9.27039 10.606 10.6731C8.38024 12.0757 6.67954 13.9662 5.50395 16.3444C6.6856 18.7202 8.39111 20.6071 10.6205 22.005C12.8499 23.403 15.2964 24.1006 17.9601 24.0978Z" fill="black"/>
</svg>
